M48
;Layer_Color=9474304
;FILE_FORMAT=2:4
INCH,LZ
;TYPE=PLATED
T1F00S00C0.0236
T2F00S00C0.0354
T3F00S00C0.0591
%
T01
X01495Y033679
Y0356
X017441Y046722
X017966
X018491
X019016
X020512Y046683
X021037
X021562
X022087
T02
X0223Y02865
Y02915
Y02965
X0247
Y02915
Y02865
X0295Y0289
Y0299
X0125Y0365
Y0375
Y0385
Y03975
Y04075
Y04175
Y04275
Y04405
Y04505
Y04605
X01575Y0404
X0229Y04075
Y04175
X0259
Y04075
X02685Y040918
Y03895
X0262Y0388
X024232
X02335Y0351
X021381
X02765Y0337
X02975Y03475
Y03775
X02935Y03965
Y04065
Y04165
X02825Y044102
X02615Y04515
X02515
X02415
X02825Y046898
X0125Y04705
T03
X02975Y03335
X0299Y0446
X0301Y04815
X02865
M30
