%FSLAX24Y24*%
%MOIN*%
G70*
G01*
G75*
G04 Layer_Color=8421504*
%ADD10O,0.0709X0.0118*%
%ADD11O,0.0118X0.0709*%
%ADD12R,0.0354X0.0276*%
%ADD13R,0.1063X0.1299*%
%ADD14R,0.1063X0.0394*%
%ADD15R,0.0512X0.0787*%
%ADD16R,0.0787X0.0787*%
%ADD17R,0.0276X0.0354*%
%ADD18R,0.0354X0.0827*%
%ADD19R,0.1260X0.0827*%
%ADD20O,0.0748X0.0236*%
%ADD21O,0.0118X0.1575*%
%ADD22R,0.0118X0.1575*%
G04:AMPARAMS|DCode=23|XSize=11.8mil|YSize=157.5mil|CornerRadius=3mil|HoleSize=0mil|Usage=FLASHONLY|Rotation=0.000|XOffset=0mil|YOffset=0mil|HoleType=Round|Shape=RoundedRectangle|*
%AMROUNDEDRECTD23*
21,1,0.0118,0.1516,0,0,0.0*
21,1,0.0059,0.1575,0,0,0.0*
1,1,0.0059,0.0030,-0.0758*
1,1,0.0059,-0.0030,-0.0758*
1,1,0.0059,-0.0030,0.0758*
1,1,0.0059,0.0030,0.0758*
%
%ADD23ROUNDEDRECTD23*%
%ADD24R,0.0236X0.0453*%
%ADD25R,0.0433X0.0669*%
%ADD26R,0.0669X0.0433*%
%ADD27C,0.0276*%
%ADD28C,0.0197*%
%ADD29C,0.0100*%
%ADD30C,0.0394*%
%ADD31C,0.0157*%
%ADD32C,0.0118*%
%ADD33C,0.0787*%
%ADD34C,0.0160*%
%ADD35R,0.0591X0.0591*%
%ADD36C,0.0591*%
%ADD37C,0.0551*%
%ADD38R,0.0591X0.0591*%
%ADD39R,0.0630X0.0630*%
%ADD40C,0.0630*%
%ADD41O,0.0787X0.0394*%
%ADD42O,0.0787X0.0394*%
%ADD43C,0.0600*%
%ADD44O,0.0394X0.0600*%
%ADD45R,0.0630X0.0630*%
D10*
X16811Y38620D02*
D03*
Y38817D02*
D03*
Y39014D02*
D03*
Y39211D02*
D03*
Y39408D02*
D03*
Y39604D02*
D03*
Y39801D02*
D03*
Y39998D02*
D03*
Y40195D02*
D03*
Y40392D02*
D03*
Y40589D02*
D03*
Y40786D02*
D03*
Y40982D02*
D03*
Y41179D02*
D03*
Y41376D02*
D03*
Y41573D02*
D03*
X21181D02*
D03*
Y41376D02*
D03*
Y41179D02*
D03*
Y40982D02*
D03*
Y40786D02*
D03*
Y40589D02*
D03*
Y40392D02*
D03*
Y40195D02*
D03*
Y39998D02*
D03*
Y39801D02*
D03*
Y39604D02*
D03*
Y39408D02*
D03*
Y39211D02*
D03*
Y39014D02*
D03*
Y38817D02*
D03*
Y38620D02*
D03*
D11*
X17520Y42282D02*
D03*
X17717D02*
D03*
X17913D02*
D03*
X18110D02*
D03*
X18307D02*
D03*
X18504D02*
D03*
X18701D02*
D03*
X18898D02*
D03*
X19094D02*
D03*
X19291D02*
D03*
X19488D02*
D03*
X19685D02*
D03*
X19882D02*
D03*
X20079D02*
D03*
X20276D02*
D03*
X20472D02*
D03*
Y37912D02*
D03*
X20276D02*
D03*
X20079D02*
D03*
X19882D02*
D03*
X19685D02*
D03*
X19488D02*
D03*
X19291D02*
D03*
X19094D02*
D03*
X18898D02*
D03*
X18701D02*
D03*
X18504D02*
D03*
X18307D02*
D03*
X18110D02*
D03*
X17913D02*
D03*
X17717D02*
D03*
X17520D02*
D03*
D12*
X22362Y44468D02*
D03*
Y45059D02*
D03*
X18858Y44508D02*
D03*
Y45098D02*
D03*
X19528Y44468D02*
D03*
Y45059D02*
D03*
X20197Y44468D02*
D03*
Y45059D02*
D03*
X21024Y44468D02*
D03*
Y45059D02*
D03*
X21693Y44468D02*
D03*
Y45059D02*
D03*
X23250Y31345D02*
D03*
Y30755D02*
D03*
X26750Y33505D02*
D03*
Y34095D02*
D03*
Y32845D02*
D03*
Y32255D02*
D03*
X24750Y30755D02*
D03*
Y31345D02*
D03*
X28000Y41655D02*
D03*
Y42245D02*
D03*
X27350Y41655D02*
D03*
Y42245D02*
D03*
X26250Y35555D02*
D03*
Y36145D02*
D03*
X17500Y35600D02*
D03*
Y35009D02*
D03*
X18500Y35600D02*
D03*
Y35009D02*
D03*
X17500Y33259D02*
D03*
Y33850D02*
D03*
X18500Y33259D02*
D03*
Y33850D02*
D03*
X19500Y33259D02*
D03*
Y33850D02*
D03*
X20500Y33259D02*
D03*
Y33850D02*
D03*
X19500Y35009D02*
D03*
Y35600D02*
D03*
X20500Y35009D02*
D03*
Y35600D02*
D03*
D13*
X16211Y30050D02*
D03*
D14*
X13889Y29144D02*
D03*
Y30050D02*
D03*
Y30956D02*
D03*
D15*
X22697Y32663D02*
D03*
X23603D02*
D03*
D16*
X23150Y34237D02*
D03*
D17*
X28495Y38050D02*
D03*
X27905D02*
D03*
X22705D02*
D03*
X23295D02*
D03*
X26455D02*
D03*
X27045D02*
D03*
X27905Y34800D02*
D03*
X28495D02*
D03*
X24955Y38050D02*
D03*
X25545D02*
D03*
X21955Y35850D02*
D03*
X22545D02*
D03*
X19755Y32555D02*
D03*
X20345D02*
D03*
X18705D02*
D03*
X19295D02*
D03*
X18245Y32555D02*
D03*
X17655D02*
D03*
X19755Y30300D02*
D03*
X20345D02*
D03*
X16605Y32550D02*
D03*
X17195D02*
D03*
D18*
X27856Y31072D02*
D03*
X26950D02*
D03*
X26044D02*
D03*
D19*
X26950Y28828D02*
D03*
D20*
X23575Y37200D02*
D03*
Y36700D02*
D03*
Y36200D02*
D03*
Y35700D02*
D03*
X25425Y37200D02*
D03*
Y36700D02*
D03*
Y36200D02*
D03*
Y35700D02*
D03*
D21*
X18000Y29050D02*
D03*
X18236D02*
D03*
X18472D02*
D03*
X18945D02*
D03*
X19181D02*
D03*
X19417D02*
D03*
X19654D02*
D03*
X20362D02*
D03*
X20598D02*
D03*
D22*
X18709D02*
D03*
X19890D02*
D03*
D23*
X20126D02*
D03*
D24*
X25600Y33793D02*
D03*
X25974Y32907D02*
D03*
X25226D02*
D03*
D25*
X27032Y46900D02*
D03*
X25968D02*
D03*
X24281D02*
D03*
X23219D02*
D03*
D26*
X12650Y29969D02*
D03*
Y31031D02*
D03*
D34*
X10709Y48743D02*
X11389Y49423D01*
X10709Y48614D02*
Y48743D01*
Y48614D02*
Y48706D01*
Y28463D02*
Y48614D01*
Y28463D02*
X12532Y26640D01*
X30649D01*
X31870Y27861D01*
Y48359D01*
X30806Y49423D02*
X31870Y48359D01*
X11389Y49423D02*
X30806D01*
M02*
