%FSLAX24Y24*%
%MOIN*%
G70*
G01*
G75*
G04 Layer_Physical_Order=1*
G04 Layer_Color=255*
%ADD10O,0.0709X0.0118*%
%ADD11O,0.0118X0.0709*%
%ADD12R,0.0354X0.0276*%
%ADD13R,0.1063X0.1299*%
%ADD14R,0.1063X0.0394*%
%ADD15R,0.0512X0.0787*%
%ADD16R,0.0787X0.0787*%
%ADD17R,0.0276X0.0354*%
%ADD18R,0.0354X0.0827*%
%ADD19R,0.1260X0.0827*%
%ADD20O,0.0748X0.0236*%
%ADD21O,0.0118X0.1575*%
%ADD22R,0.0118X0.1575*%
G04:AMPARAMS|DCode=23|XSize=11.8mil|YSize=157.5mil|CornerRadius=3mil|HoleSize=0mil|Usage=FLASHONLY|Rotation=0.000|XOffset=0mil|YOffset=0mil|HoleType=Round|Shape=RoundedRectangle|*
%AMROUNDEDRECTD23*
21,1,0.0118,0.1516,0,0,0.0*
21,1,0.0059,0.1575,0,0,0.0*
1,1,0.0059,0.0030,-0.0758*
1,1,0.0059,-0.0030,-0.0758*
1,1,0.0059,-0.0030,0.0758*
1,1,0.0059,0.0030,0.0758*
%
%ADD23ROUNDEDRECTD23*%
%ADD24R,0.0236X0.0453*%
%ADD25R,0.0433X0.0669*%
%ADD26R,0.0669X0.0433*%
%ADD27C,0.0276*%
%ADD28C,0.0197*%
%ADD29C,0.0100*%
%ADD30C,0.0394*%
%ADD31C,0.0157*%
%ADD32C,0.0118*%
%ADD33C,0.0787*%
%ADD34C,0.0160*%
%ADD35R,0.0591X0.0591*%
%ADD36C,0.0591*%
%ADD37C,0.0551*%
%ADD38R,0.0591X0.0591*%
%ADD39R,0.0630X0.0630*%
%ADD40C,0.0630*%
%ADD41O,0.0787X0.0394*%
%ADD42O,0.0787X0.0394*%
%ADD43C,0.0600*%
%ADD44O,0.0394X0.0600*%
%ADD45R,0.0630X0.0630*%
D10*
X16811Y38620D02*
D03*
Y38817D02*
D03*
Y39014D02*
D03*
Y39211D02*
D03*
Y39408D02*
D03*
Y39604D02*
D03*
Y39801D02*
D03*
Y39998D02*
D03*
Y40195D02*
D03*
Y40392D02*
D03*
Y40589D02*
D03*
Y40786D02*
D03*
Y40982D02*
D03*
Y41179D02*
D03*
Y41376D02*
D03*
Y41573D02*
D03*
X21181D02*
D03*
Y41376D02*
D03*
Y41179D02*
D03*
Y40982D02*
D03*
Y40786D02*
D03*
Y40589D02*
D03*
Y40392D02*
D03*
Y40195D02*
D03*
Y39998D02*
D03*
Y39801D02*
D03*
Y39604D02*
D03*
Y39408D02*
D03*
Y39211D02*
D03*
Y39014D02*
D03*
Y38817D02*
D03*
Y38620D02*
D03*
D11*
X17520Y42282D02*
D03*
X17717D02*
D03*
X17913D02*
D03*
X18110D02*
D03*
X18307D02*
D03*
X18504D02*
D03*
X18701D02*
D03*
X18898D02*
D03*
X19094D02*
D03*
X19291D02*
D03*
X19488D02*
D03*
X19685D02*
D03*
X19882D02*
D03*
X20079D02*
D03*
X20276D02*
D03*
X20472D02*
D03*
Y37912D02*
D03*
X20276D02*
D03*
X20079D02*
D03*
X19882D02*
D03*
X19685D02*
D03*
X19488D02*
D03*
X19291D02*
D03*
X19094D02*
D03*
X18898D02*
D03*
X18701D02*
D03*
X18504D02*
D03*
X18307D02*
D03*
X18110D02*
D03*
X17913D02*
D03*
X17717D02*
D03*
X17520D02*
D03*
D12*
X22362Y44468D02*
D03*
Y45059D02*
D03*
X18858Y44508D02*
D03*
Y45098D02*
D03*
X19528Y44468D02*
D03*
Y45059D02*
D03*
X20197Y44468D02*
D03*
Y45059D02*
D03*
X21024Y44468D02*
D03*
Y45059D02*
D03*
X21693Y44468D02*
D03*
Y45059D02*
D03*
X23250Y31345D02*
D03*
Y30755D02*
D03*
X26750Y33505D02*
D03*
Y34095D02*
D03*
Y32845D02*
D03*
Y32255D02*
D03*
X24750Y30755D02*
D03*
Y31345D02*
D03*
X28000Y41655D02*
D03*
Y42245D02*
D03*
X27350Y41655D02*
D03*
Y42245D02*
D03*
X26250Y35555D02*
D03*
Y36145D02*
D03*
X17500Y35600D02*
D03*
Y35009D02*
D03*
X18500Y35600D02*
D03*
Y35009D02*
D03*
X17500Y33259D02*
D03*
Y33850D02*
D03*
X18500Y33259D02*
D03*
Y33850D02*
D03*
X19500Y33259D02*
D03*
Y33850D02*
D03*
X20500Y33259D02*
D03*
Y33850D02*
D03*
X19500Y35009D02*
D03*
Y35600D02*
D03*
X20500Y35009D02*
D03*
Y35600D02*
D03*
D13*
X16211Y30050D02*
D03*
D14*
X13889Y29144D02*
D03*
Y30050D02*
D03*
Y30956D02*
D03*
D15*
X22697Y32663D02*
D03*
X23603D02*
D03*
D16*
X23150Y34237D02*
D03*
X29750Y33350D02*
D03*
X28650Y48150D02*
D03*
X29900Y44600D02*
D03*
X30100Y48150D02*
D03*
D17*
X28495Y38050D02*
D03*
X27905D02*
D03*
X22705D02*
D03*
X23295D02*
D03*
X26455D02*
D03*
X27045D02*
D03*
X27905Y34800D02*
D03*
X28495D02*
D03*
X24955Y38050D02*
D03*
X25545D02*
D03*
X21955Y35850D02*
D03*
X22545D02*
D03*
X19755Y32555D02*
D03*
X20345D02*
D03*
X18705D02*
D03*
X19295D02*
D03*
X18245Y32555D02*
D03*
X17655D02*
D03*
X19755Y30300D02*
D03*
X20345D02*
D03*
X16605Y32550D02*
D03*
X17195D02*
D03*
D18*
X27856Y31072D02*
D03*
X26950D02*
D03*
X26044D02*
D03*
D19*
X26950Y28828D02*
D03*
D20*
X23575Y37200D02*
D03*
Y36700D02*
D03*
Y36200D02*
D03*
Y35700D02*
D03*
X25425Y37200D02*
D03*
Y36700D02*
D03*
Y36200D02*
D03*
Y35700D02*
D03*
D21*
X18000Y29050D02*
D03*
X18236D02*
D03*
X18472D02*
D03*
X18945D02*
D03*
X19181D02*
D03*
X19417D02*
D03*
X19654D02*
D03*
X20362D02*
D03*
X20598D02*
D03*
D22*
X18709D02*
D03*
X19890D02*
D03*
D23*
X20126D02*
D03*
D24*
X25600Y33793D02*
D03*
X25974Y32907D02*
D03*
X25226D02*
D03*
D25*
X27032Y46900D02*
D03*
X25968D02*
D03*
X24281D02*
D03*
X23219D02*
D03*
D26*
X12650Y29969D02*
D03*
Y31031D02*
D03*
D27*
X17480Y32628D02*
Y33264D01*
X18500Y32580D02*
Y33259D01*
X19500Y32582D02*
Y33259D01*
X20500Y32709D02*
Y33259D01*
D28*
X17200Y32555D02*
X17638D01*
X18474Y33234D02*
X18500Y33259D01*
X19500D02*
X19528Y33232D01*
Y32555D02*
X19755D01*
X21496Y41614D02*
X22782Y42900D01*
X24150D01*
X23228Y46072D02*
X24150Y45150D01*
X23228Y46072D02*
Y46890D01*
X18491Y46096D02*
X19528Y45059D01*
X18491Y46096D02*
Y46722D01*
X19902Y45354D02*
Y45886D01*
Y45354D02*
X20197Y45059D01*
X19843Y45945D02*
X19902Y45886D01*
X19843Y45945D02*
X19843D01*
X19065Y46722D02*
X19843Y45945D01*
X19016Y46722D02*
X19065D01*
X17966D02*
Y48137D01*
X21037Y46683D02*
Y48137D01*
X17441Y46339D02*
X18681Y45098D01*
X18858D01*
X17441Y46339D02*
Y46722D01*
X20512Y46339D02*
Y46683D01*
Y46339D02*
X21024Y45827D01*
Y45059D02*
Y45827D01*
X21562Y46076D02*
Y46683D01*
Y46076D02*
X21693Y45945D01*
Y45059D02*
Y45945D01*
X22087Y46683D02*
X22362Y46407D01*
Y45059D02*
Y46407D01*
X14675Y45079D02*
X17221D01*
X13704Y46050D02*
X14675Y45079D01*
X12500Y46050D02*
X13704D01*
X14045Y44528D02*
X17272D01*
X13523Y45050D02*
X14045Y44528D01*
X12500Y45050D02*
X13523D01*
X22030Y41380D02*
X22500Y41850D01*
X23400Y41250D02*
X25400D01*
X25900Y40750D01*
X11850Y42750D02*
X12500D01*
X11650Y42550D02*
X11850Y42750D01*
X11650Y31750D02*
Y42550D01*
X12550Y42800D02*
X17400D01*
X27350Y33700D02*
X27650D01*
X26955Y34095D02*
X27350Y33700D01*
X27800Y37200D02*
X28200Y36800D01*
Y35300D02*
Y36800D01*
X27400Y34250D02*
X28035D01*
X27000Y34650D02*
X27400Y34250D01*
X25150Y39450D02*
X25545Y39055D01*
X22551Y39450D02*
X25150D01*
X21921Y38820D02*
X22551Y39450D01*
X25425Y37200D02*
X27800D01*
X27250Y35650D02*
Y36300D01*
X26850Y36700D02*
X27250Y36300D01*
X25425Y36700D02*
X26850D01*
X27250Y35650D02*
X27905Y34995D01*
Y34800D02*
Y34995D01*
X25545Y38050D02*
Y39055D01*
X28250Y42245D02*
X28850Y41650D01*
X27350Y42245D02*
X28250D01*
X28850Y41650D02*
X29350D01*
X26455Y38050D02*
Y38705D01*
X26700Y38950D01*
X28100Y41550D02*
X29000Y40650D01*
X23200Y39800D02*
X27000D01*
X22900Y40100D02*
X23200Y39800D01*
X22900Y40100D02*
Y40750D01*
X27000Y39800D02*
X27500Y40300D01*
X27350Y41650D02*
X27500Y41500D01*
Y40300D02*
Y41450D01*
X23350Y35100D02*
X23850D01*
X24300Y34650D01*
X16700Y42250D02*
X16800Y42150D01*
X13325Y42250D02*
X16700D01*
X17320Y38820D02*
X17700Y39200D01*
Y39411D01*
X12000Y41350D02*
Y42100D01*
Y41350D02*
X12500Y40850D01*
X17720Y39400D02*
Y41380D01*
X24300Y34650D02*
X27000D01*
X26150Y45150D02*
X27200Y44100D01*
X27032Y46031D02*
Y46900D01*
X26150Y45150D02*
X27032Y46031D01*
X29900Y44600D02*
Y46850D01*
X12500Y44050D02*
X17250D01*
X12500Y41800D02*
X14700D01*
X14924Y41576D01*
X12500Y39650D02*
X15050D01*
Y41050D01*
X28545Y34750D02*
X29750D01*
X28800Y37750D02*
X29750D01*
X28500Y38050D02*
X28800Y37750D01*
X25850Y35700D02*
X25995Y35555D01*
X25425Y36200D02*
X26000D01*
X25545Y37320D02*
Y38050D01*
X24750Y36450D02*
X25000Y36200D01*
X24750Y36450D02*
Y37850D01*
X27045Y38050D02*
X27905D01*
X25545D02*
X26455D01*
X24950Y35700D02*
X25425D01*
X24250Y36400D02*
X24950Y35700D01*
X24250Y36400D02*
Y37900D01*
X24100Y38050D02*
X24250Y37900D01*
X23295Y38050D02*
X24100D01*
X22250Y35137D02*
X23150Y34237D01*
X26750Y32845D02*
Y33505D01*
Y32845D02*
X27305D01*
X27856Y32294D01*
Y31072D02*
Y32294D01*
X25902Y34095D02*
X26750D01*
X25600Y33793D02*
X25902Y34095D01*
X26255Y32255D02*
X26750D01*
X26044Y32044D02*
X26255Y32255D01*
X26044Y31072D02*
Y32044D01*
X25506D02*
X26044D01*
X25226Y32324D02*
X25506Y32044D01*
X25226Y32324D02*
Y32907D01*
X26950Y28828D02*
X28428D01*
X29500Y29900D01*
X23150Y33500D02*
Y34237D01*
Y33500D02*
X23603Y33047D01*
Y32493D02*
X24750Y31345D01*
Y30755D02*
X25255D01*
X25572Y31072D01*
X26044D01*
X22697Y31898D02*
Y32663D01*
Y31898D02*
X23250Y31345D01*
X24750Y29750D02*
Y30755D01*
X23250Y29650D02*
Y30755D01*
X22750Y29150D02*
X23250Y29650D01*
X22300Y28650D02*
X23350D01*
X23850Y29150D01*
X24700D01*
X29600Y29000D02*
X30900D01*
X29300Y31000D02*
X30900D01*
X28250Y29950D02*
X29300Y31000D01*
X26200Y29950D02*
X28250D01*
X25650Y29400D02*
X26200Y29950D01*
X25650Y28200D02*
Y29400D01*
X25400Y27950D02*
X25650Y28200D01*
X21700Y27950D02*
X25400D01*
X21350Y28300D02*
X21700Y27950D01*
X21400Y29650D02*
X22300D01*
X30900Y29000D02*
Y31000D01*
Y40650D01*
X22545Y35850D02*
X22850D01*
X23000Y35700D01*
X23575D01*
X20500Y33850D02*
Y35009D01*
X19500Y33850D02*
Y35009D01*
X18500Y33850D02*
Y35009D01*
X17500Y33850D02*
Y35009D01*
X18245Y32555D02*
X18705D01*
X19295D02*
X19500D01*
X12500Y37450D02*
X14150D01*
X19755Y30300D02*
Y30645D01*
X19809Y30700D01*
X20700D01*
X21000Y30400D01*
Y27850D02*
Y30400D01*
X17511Y27800D02*
X20950D01*
X16250Y29061D02*
X17511Y27800D01*
X13889Y30956D02*
X15256D01*
X16605Y32305D01*
Y32550D01*
X12726Y30956D02*
X13889D01*
X12106Y29144D02*
X13889D01*
X11850Y29400D02*
X12106Y29144D01*
X11850Y29400D02*
Y31550D01*
X12600Y32300D01*
Y34150D01*
X16300Y37850D01*
X21350Y28300D02*
Y31300D01*
X21905Y31855D01*
Y35800D01*
X20345Y32555D02*
X21105D01*
X21300Y32750D01*
X24300Y34650D02*
X24650Y34300D01*
Y33483D02*
Y34300D01*
Y33483D02*
X25226Y32907D01*
X13889Y30050D02*
X16211D01*
X16250Y29061D02*
Y30050D01*
X12731D02*
X13889D01*
X12650Y38450D02*
X14600D01*
X17720Y41380D02*
X20480D01*
X27200Y44100D02*
X28248D01*
X22500Y41850D02*
X22800D01*
X24150Y42900D02*
Y45150D01*
X28250Y46898D02*
X28298Y46850D01*
X29900D01*
X11650Y31750D02*
X11850Y31550D01*
X21300Y32750D02*
Y35800D01*
X12650Y36500D02*
X13750D01*
D29*
X19006Y33048D02*
X19007Y33050D01*
X19006Y30846D02*
Y33850D01*
X18945Y30785D02*
X19006Y30846D01*
Y33850D02*
X19500D01*
X18945Y29050D02*
Y30785D01*
X21181Y41376D02*
X22026D01*
X21192Y41581D02*
X21192D01*
X23219Y46900D02*
X23228Y46890D01*
X17953Y48150D02*
X17966Y48137D01*
X20079Y42289D02*
X20083Y42285D01*
X20079Y42289D02*
Y42795D01*
Y42282D02*
Y42289D01*
X22362Y44468D02*
X22362Y44468D01*
Y43425D02*
Y44468D01*
X20709Y43425D02*
X22362D01*
X20079Y42795D02*
X20709Y43425D01*
X21693Y43701D02*
Y44468D01*
Y43701D02*
X21693Y43701D01*
X20709D02*
X21693D01*
X19882Y42874D02*
X20709Y43701D01*
X19882Y42282D02*
Y42874D01*
X21024Y44468D02*
X21024Y44468D01*
Y44094D02*
Y44468D01*
X20787Y44094D02*
X21024D01*
X19685Y42992D02*
X20787Y44094D01*
X19685Y42282D02*
Y42992D01*
X20197Y44134D02*
Y44468D01*
Y44134D02*
X20197Y44134D01*
X19961D02*
X20197D01*
X19488Y43661D02*
X19961Y44134D01*
X19488Y42282D02*
Y43661D01*
X19528Y44094D02*
Y44468D01*
X19291Y43858D02*
X19528Y44094D01*
X19291Y42282D02*
Y43858D01*
X18858Y44094D02*
Y44508D01*
Y44094D02*
X19094Y43858D01*
Y42282D02*
Y43858D01*
X21181Y40982D02*
X22415D01*
X20480Y41380D02*
X21185D01*
X22026Y41376D02*
X22030Y41380D01*
X17221Y45079D02*
X18902Y43398D01*
X17272Y44528D02*
X18705Y43095D01*
X21181Y38817D02*
X21918D01*
X18898Y43394D02*
X18902Y43398D01*
X18898Y42282D02*
Y43394D01*
X18701Y43091D02*
X18705Y43095D01*
X18701Y42282D02*
Y43091D01*
X18504Y42788D02*
X18508Y42792D01*
X18504Y42282D02*
Y42788D01*
X17717Y43026D02*
X17720Y43030D01*
X17717Y42282D02*
Y43026D01*
X14927Y41573D02*
X16811D01*
X15050Y41050D02*
X15380Y41380D01*
X15383Y41376D02*
X16811D01*
X15761Y39604D02*
X16811D01*
X15911Y39211D02*
X16811D01*
X16264Y39014D02*
X16811D01*
X16300Y38600D02*
X16803D01*
X18307Y37415D02*
X18311Y37411D01*
X18307Y37415D02*
Y37912D01*
X18504Y37162D02*
Y37912D01*
X18898Y37056D02*
X18902Y37052D01*
X18898Y37056D02*
Y37912D01*
X19094Y36752D02*
X19098Y36748D01*
X19094Y36752D02*
Y37912D01*
X19291Y36809D02*
X19500Y36600D01*
X19291Y36809D02*
Y37912D01*
X19488Y37312D02*
X20500Y36300D01*
X19488Y37312D02*
Y37912D01*
X19685Y37415D02*
Y37912D01*
X20276Y37374D02*
X20550Y37100D01*
X20276Y37374D02*
Y37912D01*
X17524Y37918D02*
Y38424D01*
X21185Y41589D02*
X21192Y41581D01*
X17511Y41853D02*
Y42689D01*
Y41853D02*
X17665Y41700D01*
X20400D01*
X16815Y38624D02*
Y38625D01*
X16814Y39213D02*
X16815Y39214D01*
X22415Y40982D02*
X22683Y41250D01*
X23400D01*
X12500Y42750D02*
X12550Y42800D01*
X19654Y29050D02*
Y30199D01*
X26750Y34095D02*
X26955D01*
X28200Y34415D02*
Y35300D01*
X28035Y34250D02*
X28200Y34415D01*
X22250Y38700D02*
X24232D01*
X21750Y38200D02*
X22250Y38700D01*
X20900Y38200D02*
X21750D01*
X20550Y38550D02*
X20900Y38200D01*
X20300Y38550D02*
X20550D01*
X20083Y38333D02*
X20300Y38550D01*
X20083Y37915D02*
Y38333D01*
X20217Y39017D02*
X21185D01*
X19850Y38650D02*
X20217Y39017D01*
X17750Y38650D02*
X19850D01*
X17524Y38424D02*
X17750Y38650D01*
X26850Y38950D02*
X26950Y39050D01*
X26700Y38950D02*
X26850D01*
X27300Y41650D02*
X27500Y41450D01*
X29000Y40650D02*
X29350D01*
X20524Y41576D02*
X21185D01*
X16800Y42150D02*
X17150Y41800D01*
X19886Y37915D02*
Y38614D01*
X16815Y38820D02*
X17320D01*
X12500Y40750D02*
Y40850D01*
X16815Y39411D02*
X17700D01*
X17512Y48112D02*
X17550Y48150D01*
X16345Y39805D02*
X16815D01*
X15650Y40500D02*
X16345Y39805D01*
X15650Y40500D02*
Y40600D01*
X28550Y48350D02*
X28650Y48250D01*
X28000Y42245D02*
X28200D01*
X17250Y44050D02*
X18508Y42792D01*
X12450Y42850D02*
Y42900D01*
X22800Y41850D02*
X22900Y41800D01*
X28495Y34800D02*
X28545Y34750D01*
X25425Y35700D02*
X25850D01*
X26000Y36200D02*
X26055Y36145D01*
X25000Y36200D02*
X25425D01*
X24750Y37850D02*
X24950Y38050D01*
X17475Y48075D02*
X17550Y48150D01*
X21900Y38050D02*
X22705D01*
X21765Y37915D02*
X21900Y38050D01*
X20489Y37915D02*
X21765D01*
X30400Y40650D02*
X30900D01*
X22100Y37100D02*
X22250Y36950D01*
Y35137D02*
Y36950D01*
X23603Y32493D02*
Y32663D01*
Y33047D01*
X24700Y29700D02*
X24750Y29750D01*
X22300Y29150D02*
X22750D01*
X17500Y35650D02*
X18902Y37052D01*
X17500Y35600D02*
Y35650D01*
X20345Y32555D02*
X20500Y32709D01*
X20100Y33850D02*
X20500D01*
X20050Y33800D02*
X20100Y33850D01*
X20050Y31350D02*
Y33800D01*
X19181Y30481D02*
X20050Y31350D01*
X19181Y29050D02*
Y30481D01*
X17957Y31057D02*
X18472Y30543D01*
Y29050D02*
Y30543D01*
X18236Y29050D02*
Y30364D01*
X16900Y31700D02*
X18236Y30364D01*
X16900Y31700D02*
Y33850D01*
X17500D01*
X20362Y29050D02*
Y30283D01*
X20345Y30300D02*
X20362Y30283D01*
X19654Y30199D02*
X19755Y30300D01*
X20126Y29050D02*
X20126Y29050D01*
X19890Y28090D02*
Y29050D01*
X18709Y28090D02*
Y29050D01*
Y28090D02*
X19890D01*
X18705Y29054D02*
Y32555D01*
X20950Y27800D02*
X21000Y27850D01*
X12650Y31031D02*
X12726Y30956D01*
X12650Y29969D02*
X12731Y30050D01*
X26055Y36145D02*
X26250D01*
X25995Y35555D02*
X26250D01*
X12500Y36350D02*
X12650Y36500D01*
X12550Y38350D02*
X12650Y38450D01*
X17200Y43450D02*
X17300D01*
X17500Y36600D02*
X18311Y37411D01*
X14950Y33700D02*
Y33750D01*
X17150Y41800D02*
X17250D01*
X17670Y41380D01*
X17720D01*
X20400Y41700D02*
X20524Y41576D01*
X20550Y37100D02*
X22100D01*
X19685Y37415D02*
X21300Y35800D01*
X17957Y31057D02*
Y33850D01*
X18500D01*
D30*
X17953Y48150D02*
X28650D01*
X17550D02*
X17953D01*
X22900Y41800D02*
X25900D01*
Y41750D02*
X26850Y40800D01*
X25150Y46900D02*
Y48100D01*
Y46900D02*
X25968D01*
X24281D02*
X25150D01*
X25900Y41800D02*
Y43650D01*
X25150Y44400D02*
X25900Y43650D01*
X25150Y44400D02*
Y45150D01*
Y46900D01*
X12475Y47075D02*
X13550Y48150D01*
X17550D01*
X11800Y47050D02*
X12500D01*
X11800Y43450D02*
Y47050D01*
Y43450D02*
X17200D01*
D31*
X14600Y38450D02*
X15758Y39608D01*
X14150Y37450D02*
X15911Y39211D01*
X16815Y38435D02*
Y38611D01*
X17350Y36000D02*
X18508Y37158D01*
X16815Y38435D02*
X17332Y37918D01*
X12150Y42250D02*
X13325D01*
X12000Y42100D02*
X12150Y42250D01*
X20500Y35600D02*
Y36300D01*
X19500Y35600D02*
Y36600D01*
X18500Y36150D02*
X19098Y36748D01*
X18500Y35600D02*
Y36150D01*
X16300Y37850D02*
Y38600D01*
X14950Y33750D02*
X17200Y36000D01*
X17350D01*
X14950Y35600D02*
X16100D01*
X17100Y36600D01*
X17500D01*
X13750Y36500D02*
X16250Y39000D01*
D32*
X17332Y37918D02*
X17524D01*
X17400Y42800D02*
X17511Y42689D01*
X19417Y29050D02*
X19654D01*
X19890Y29050D02*
X20126D01*
X17300Y43450D02*
X17720Y43030D01*
D33*
X29900Y44600D02*
X30750Y43750D01*
Y41000D02*
Y43750D01*
X30400Y40650D02*
X30750Y41000D01*
X29350Y39650D02*
X29750Y39250D01*
Y33350D02*
Y34700D01*
X28650Y48150D02*
X30100D01*
X29750Y37750D02*
Y39250D01*
X29350Y40650D02*
X30400D01*
D34*
X10709Y48743D02*
X11389Y49423D01*
X10709Y48614D02*
Y48743D01*
Y48614D02*
Y48706D01*
Y28463D02*
Y48614D01*
Y28463D02*
X12532Y26640D01*
X30649D01*
X31870Y27861D01*
Y48359D01*
X30806Y49423D02*
X31870Y48359D01*
X11389Y49423D02*
X30806D01*
D35*
X25900Y40750D02*
D03*
X27650Y33700D02*
D03*
X15750Y40400D02*
D03*
D36*
X25900Y41750D02*
D03*
X22900Y40750D02*
D03*
Y41750D02*
D03*
X12500Y36500D02*
D03*
Y37500D02*
D03*
X29500Y29900D02*
D03*
X12500Y41750D02*
D03*
Y40750D02*
D03*
Y39750D02*
D03*
X28250Y46898D02*
D03*
X12500Y46050D02*
D03*
Y45050D02*
D03*
Y44050D02*
D03*
D37*
X29750Y34750D02*
D03*
Y37750D02*
D03*
D38*
X12500Y38500D02*
D03*
X29500Y28900D02*
D03*
X12500Y42750D02*
D03*
X28250Y44102D02*
D03*
X12500Y47050D02*
D03*
D39*
X26150Y45150D02*
D03*
D40*
X25150D02*
D03*
X24150D02*
D03*
X29350Y40650D02*
D03*
Y39650D02*
D03*
D41*
X22300Y28650D02*
D03*
X24700Y29650D02*
D03*
D42*
X22300Y29150D02*
D03*
Y29650D02*
D03*
X24700Y29150D02*
D03*
Y28650D02*
D03*
D43*
X24232Y38800D02*
D03*
X26200D02*
D03*
X26850Y40918D02*
D03*
Y38950D02*
D03*
X21381Y35100D02*
D03*
X23350D02*
D03*
X14950Y33679D02*
D03*
Y35600D02*
D03*
D44*
X17441Y46722D02*
D03*
X17966D02*
D03*
X18491D02*
D03*
X19016D02*
D03*
X20512Y46683D02*
D03*
X21037D02*
D03*
X21562D02*
D03*
X22087D02*
D03*
D45*
X29350Y41650D02*
D03*
M02*
