%FSLAX43Y43*%
%MOMM*%
G71*
G01*
G75*
G04 Layer_Physical_Order=1*
G04 Layer_Color=255*
%ADD10R,0.900X0.700*%
%ADD11R,2.700X3.300*%
%ADD12R,2.700X1.000*%
%ADD13O,1.800X0.300*%
%ADD14O,0.300X1.800*%
%ADD15R,1.300X2.000*%
%ADD16R,2.000X2.000*%
%ADD17R,0.700X0.900*%
%ADD18R,0.900X2.100*%
%ADD19R,3.200X2.100*%
%ADD20O,1.900X0.600*%
%ADD21O,0.300X4.000*%
%ADD22R,0.300X4.000*%
G04:AMPARAMS|DCode=23|XSize=0.3mm|YSize=4mm|CornerRadius=0.075mm|HoleSize=0mm|Usage=FLASHONLY|Rotation=0.000|XOffset=0mm|YOffset=0mm|HoleType=Round|Shape=RoundedRectangle|*
%AMROUNDEDRECTD23*
21,1,0.300,3.850,0,0,0.0*
21,1,0.150,4.000,0,0,0.0*
1,1,0.150,0.075,-1.925*
1,1,0.150,-0.075,-1.925*
1,1,0.150,-0.075,1.925*
1,1,0.150,0.075,1.925*
%
%ADD23ROUNDEDRECTD23*%
%ADD24R,0.600X1.150*%
%ADD25R,1.100X1.700*%
%ADD26R,1.700X1.100*%
%ADD27C,0.500*%
%ADD28C,1.000*%
%ADD29C,0.254*%
%ADD30C,0.400*%
%ADD31C,0.300*%
%ADD32C,2.000*%
%ADD33R,1.500X1.500*%
%ADD34C,1.500*%
%ADD35C,1.400*%
%ADD36R,1.500X1.500*%
%ADD37R,1.600X1.600*%
%ADD38C,1.600*%
%ADD39O,2.000X1.000*%
%ADD40O,2.000X1.000*%
%ADD41C,1.524*%
%ADD42O,1.000X1.524*%
%ADD43R,1.600X1.600*%
D10*
X56800Y112950D02*
D03*
Y114450D02*
D03*
X47900Y113050D02*
D03*
Y114550D02*
D03*
X49600Y112950D02*
D03*
Y114450D02*
D03*
X51300Y112950D02*
D03*
Y114450D02*
D03*
X53400Y112950D02*
D03*
Y114450D02*
D03*
X55100Y112950D02*
D03*
Y114450D02*
D03*
X59055Y79617D02*
D03*
Y78117D02*
D03*
X67945Y85102D02*
D03*
Y86602D02*
D03*
Y83427D02*
D03*
Y81927D02*
D03*
X62865Y78117D02*
D03*
Y79617D02*
D03*
X71120Y105803D02*
D03*
Y107303D02*
D03*
X69469Y105803D02*
D03*
Y107303D02*
D03*
X66675Y90309D02*
D03*
Y91809D02*
D03*
X44450Y90424D02*
D03*
Y88924D02*
D03*
X46990Y90424D02*
D03*
Y88924D02*
D03*
X44450Y84479D02*
D03*
Y85979D02*
D03*
X46990Y84479D02*
D03*
Y85979D02*
D03*
X49530Y84479D02*
D03*
Y85979D02*
D03*
X52070Y84479D02*
D03*
Y85979D02*
D03*
X49530Y88924D02*
D03*
Y90424D02*
D03*
X52070Y88924D02*
D03*
Y90424D02*
D03*
D11*
X41177Y76327D02*
D03*
D12*
X35277Y74027D02*
D03*
Y76327D02*
D03*
Y78627D02*
D03*
D13*
X42700Y98095D02*
D03*
Y98595D02*
D03*
Y99095D02*
D03*
Y99595D02*
D03*
Y100095D02*
D03*
Y100595D02*
D03*
Y101095D02*
D03*
Y101595D02*
D03*
Y102095D02*
D03*
Y102595D02*
D03*
Y103095D02*
D03*
Y103595D02*
D03*
Y104095D02*
D03*
Y104595D02*
D03*
Y105095D02*
D03*
Y105595D02*
D03*
X53800D02*
D03*
Y105095D02*
D03*
Y104595D02*
D03*
Y104095D02*
D03*
Y103595D02*
D03*
Y103095D02*
D03*
Y102595D02*
D03*
Y102095D02*
D03*
Y101595D02*
D03*
Y101095D02*
D03*
Y100595D02*
D03*
Y100095D02*
D03*
Y99595D02*
D03*
Y99095D02*
D03*
Y98595D02*
D03*
Y98095D02*
D03*
D14*
X44500Y107395D02*
D03*
X45000D02*
D03*
X45500D02*
D03*
X46000D02*
D03*
X46500D02*
D03*
X47000D02*
D03*
X47500D02*
D03*
X48000D02*
D03*
X48500D02*
D03*
X49000D02*
D03*
X49500D02*
D03*
X50000D02*
D03*
X50500D02*
D03*
X51000D02*
D03*
X51500D02*
D03*
X52000D02*
D03*
Y96295D02*
D03*
X51500D02*
D03*
X51000D02*
D03*
X50500D02*
D03*
X50000D02*
D03*
X49500D02*
D03*
X49000D02*
D03*
X48500D02*
D03*
X48000D02*
D03*
X47500D02*
D03*
X47000D02*
D03*
X46500D02*
D03*
X46000D02*
D03*
X45500D02*
D03*
X45000D02*
D03*
X44500D02*
D03*
D15*
X57651Y82963D02*
D03*
X59951D02*
D03*
D16*
X58801Y86963D02*
D03*
D17*
X72378Y96647D02*
D03*
X70878D02*
D03*
X57670D02*
D03*
X59170D02*
D03*
X67195D02*
D03*
X68695D02*
D03*
X70878Y88392D02*
D03*
X72378D02*
D03*
X63385Y96647D02*
D03*
X64885D02*
D03*
X55765Y91059D02*
D03*
X57265D02*
D03*
X50177Y82689D02*
D03*
X51677D02*
D03*
X47510D02*
D03*
X49010D02*
D03*
X46343Y82689D02*
D03*
X44843D02*
D03*
X50177Y76962D02*
D03*
X51677D02*
D03*
X42176Y82677D02*
D03*
X43676D02*
D03*
D18*
X70753Y78923D02*
D03*
X68453D02*
D03*
X66153D02*
D03*
D19*
X68453Y73223D02*
D03*
D20*
X59880Y94488D02*
D03*
Y93218D02*
D03*
Y91948D02*
D03*
Y90678D02*
D03*
X64580Y94488D02*
D03*
Y93218D02*
D03*
Y91948D02*
D03*
Y90678D02*
D03*
D21*
X45720Y73787D02*
D03*
X46320D02*
D03*
X46920D02*
D03*
X48120D02*
D03*
X48720D02*
D03*
X49320D02*
D03*
X49920D02*
D03*
X51720D02*
D03*
X52320D02*
D03*
D22*
X47520D02*
D03*
X50520D02*
D03*
D23*
X51120D02*
D03*
D24*
X65024Y85834D02*
D03*
X65974Y83584D02*
D03*
X64074D02*
D03*
D25*
X68660Y119126D02*
D03*
X65960D02*
D03*
X61675D02*
D03*
X58975D02*
D03*
D26*
X32131Y76120D02*
D03*
Y78820D02*
D03*
D27*
X46967Y118033D02*
X47000Y118000D01*
Y117500D02*
Y118000D01*
Y117500D02*
X48442Y116058D01*
X48942D02*
X49600Y115400D01*
X48442Y116058D02*
X48942D01*
X50400Y116700D02*
X51300Y115800D01*
Y114450D02*
Y115800D01*
X51300Y114450D02*
X51300Y114450D01*
X49600Y114450D02*
Y115400D01*
X46967Y118033D02*
Y118675D01*
X50400Y116700D02*
X50400D01*
X48425Y118675D02*
X50400Y116700D01*
X48300Y118675D02*
X48425D01*
X45633D02*
Y122268D01*
X53433Y118575D02*
Y122268D01*
X44300Y117700D02*
X47450Y114550D01*
X47900D01*
X44300Y117700D02*
Y118675D01*
X52100Y117700D02*
Y118575D01*
Y117700D02*
X53400Y116400D01*
Y114450D02*
Y116400D01*
X54767Y117033D02*
Y118575D01*
Y117033D02*
X55100Y116700D01*
Y114450D02*
Y116700D01*
X56100Y118575D02*
X56800Y117875D01*
Y114450D02*
Y117875D01*
X37275Y114500D02*
X43742D01*
X34808Y116967D02*
X37275Y114500D01*
X31750Y116967D02*
X34808D01*
X35675Y113100D02*
X43872D01*
X34348Y114427D02*
X35675Y113100D01*
X31750Y114427D02*
X34348D01*
X58589Y108966D02*
X61341D01*
X55240Y105617D02*
X58589Y108966D01*
X55955Y105104D02*
X57150Y106299D01*
X59436Y104775D02*
X64516D01*
X65786Y103505D01*
X30099Y108585D02*
X31750D01*
X29591Y108077D02*
X30099Y108585D01*
X29591Y80645D02*
Y108077D01*
X31877Y108712D02*
X44196D01*
X69469Y85598D02*
X70231D01*
X68465Y86602D02*
X69469Y85598D01*
X70612Y94488D02*
X71628Y93472D01*
Y89662D02*
Y93472D01*
X69596Y86995D02*
X71209D01*
X68580Y88011D02*
X69596Y86995D01*
X63881Y100203D02*
X64885Y99199D01*
X57279Y100203D02*
X63881D01*
X55680Y98604D02*
X57279Y100203D01*
X64580Y94488D02*
X70612D01*
X69215Y90551D02*
Y92202D01*
X68199Y93218D02*
X69215Y92202D01*
X64580Y93218D02*
X68199D01*
X69215Y90551D02*
X70878Y88888D01*
Y88392D02*
Y88888D01*
X64885Y96647D02*
Y99199D01*
X71755Y107303D02*
X73279Y105791D01*
X69469Y107303D02*
X71755D01*
X73279Y105791D02*
X74549D01*
X67195Y96647D02*
Y98310D01*
X67818Y98933D01*
X71374Y105537D02*
X73660Y103251D01*
X58928Y101092D02*
X68580D01*
X58166Y101854D02*
X58928Y101092D01*
X58166Y101854D02*
Y103505D01*
X68580Y101092D02*
X69850Y102362D01*
X69469Y105791D02*
X69850Y105410D01*
Y102362D02*
Y105283D01*
X59309Y89154D02*
X60579D01*
X61722Y88011D01*
X42418Y107315D02*
X42672Y107061D01*
X33846Y107315D02*
X42418D01*
X43994Y98604D02*
X44958Y99568D01*
Y100104D01*
X30480Y105029D02*
Y106934D01*
Y105029D02*
X31750Y103759D01*
X45010Y100076D02*
Y105104D01*
X61722Y88011D02*
X68580D01*
X66421Y114681D02*
X69088Y112014D01*
X68660Y116920D02*
Y119126D01*
X66421Y114681D02*
X68660Y116920D01*
X75946Y113284D02*
Y118999D01*
X31750Y111887D02*
X43815D01*
X31750Y106172D02*
X37338D01*
X37906Y105604D01*
X31750Y100711D02*
X38227D01*
Y104267D01*
X72505Y88265D02*
X75565D01*
X73152Y95885D02*
X75565D01*
X72390Y96647D02*
X73152Y95885D01*
X65659Y90678D02*
X66028Y90309D01*
X64580Y91948D02*
X66040D01*
X64885Y94793D02*
Y96647D01*
X62865Y92583D02*
X63500Y91948D01*
X62865Y92583D02*
Y96139D01*
X68695Y96647D02*
X70878D01*
X64885D02*
X67195D01*
X63373Y90678D02*
X64580D01*
X61595Y92456D02*
X63373Y90678D01*
X61595Y92456D02*
Y96266D01*
X61214Y96647D02*
X61595Y96266D01*
X59170Y96647D02*
X61214D01*
X56515Y89249D02*
X58801Y86963D01*
X67945Y83427D02*
Y85102D01*
Y83427D02*
X69354D01*
X70753Y82028D01*
Y78923D02*
Y82028D01*
X65792Y86602D02*
X67945D01*
X65024Y85834D02*
X65792Y86602D01*
X66687Y81927D02*
X67945D01*
X66153Y81393D02*
X66687Y81927D01*
X66153Y78923D02*
Y81393D01*
X64784D02*
X66153D01*
X64074Y82103D02*
X64784Y81393D01*
X64074Y82103D02*
Y83584D01*
X68453Y73223D02*
X72207D01*
X74930Y75946D01*
X58801Y85090D02*
Y86963D01*
Y85090D02*
X59951Y83940D01*
Y82531D02*
X62865Y79617D01*
Y78117D02*
X64147D01*
X64953Y78923D01*
X66153D01*
X57651Y81021D02*
Y82963D01*
Y81021D02*
X59055Y79617D01*
X62865Y75565D02*
Y78117D01*
X59055Y75311D02*
Y78117D01*
X57785Y74041D02*
X59055Y75311D01*
X56642Y72771D02*
X59309D01*
X60579Y74041D01*
X62738D01*
X75184Y73660D02*
X78486D01*
X74422Y78740D02*
X78486D01*
X71755Y76073D02*
X74422Y78740D01*
X66548Y76073D02*
X71755D01*
X65151Y74676D02*
X66548Y76073D01*
X65151Y71628D02*
Y74676D01*
X64516Y70993D02*
X65151Y71628D01*
X55118Y70993D02*
X64516D01*
X54229Y71882D02*
X55118Y70993D01*
X54356Y75311D02*
X56642D01*
X78486Y73660D02*
Y78740D01*
Y103251D01*
X57265Y91059D02*
X58039D01*
X58420Y90678D01*
X59880D01*
X58975Y117174D02*
X61341Y114808D01*
X58975Y117174D02*
Y119126D01*
X52070Y85979D02*
Y88924D01*
X49530Y85979D02*
Y88924D01*
X46990Y85979D02*
Y88924D01*
X44450Y85979D02*
Y88924D01*
X52070Y83082D02*
Y84479D01*
X46990Y82689D02*
Y84479D01*
X46343Y82689D02*
X46990D01*
X47510D01*
X49530D02*
Y84479D01*
X49010Y82689D02*
X49530D01*
X50177D01*
X43688Y82689D02*
X44843D01*
X31750Y95123D02*
X35941D01*
X50177Y76962D02*
Y77839D01*
X50316Y77978D01*
X52578D01*
X53340Y77216D01*
Y70739D02*
Y77216D01*
X44479Y70612D02*
X53213D01*
X41275Y73816D02*
X44479Y70612D01*
X35277Y78627D02*
X38749D01*
X42176Y82054D01*
Y82677D01*
X32324Y78627D02*
X35277D01*
X30748Y74027D02*
X35277D01*
X30099Y74676D02*
X30748Y74027D01*
X30099Y74676D02*
Y80137D01*
X32004Y82042D01*
Y86741D01*
X41402Y96139D01*
X54229Y71882D02*
Y79502D01*
X55638Y80911D01*
Y90932D01*
X51677Y82689D02*
X53606D01*
X54102Y83185D01*
X61722Y88011D02*
X62611Y87122D01*
Y85047D02*
Y87122D01*
Y85047D02*
X64074Y83584D01*
X35277Y76327D02*
X41177D01*
X41275Y73816D02*
Y76327D01*
X32338D02*
X35277D01*
X32131Y97663D02*
X37084D01*
X45010Y105104D02*
X52018D01*
X69088Y112014D02*
X71749D01*
X57150Y106299D02*
X57912D01*
X61341Y108966D02*
Y114681D01*
X71755Y119120D02*
X71876Y118999D01*
X75946D01*
X29591Y80645D02*
X30099Y80137D01*
X54102Y83185D02*
Y90932D01*
X44450Y82677D02*
Y84074D01*
X32131Y92710D02*
X34925D01*
D28*
X45600Y122301D02*
X72771D01*
X44577D02*
X45600D01*
X58166Y106172D02*
X65786D01*
Y106045D02*
X68199Y103632D01*
X63881Y119126D02*
Y122174D01*
Y119126D02*
X65960D01*
X61675D02*
X63881D01*
X65786Y106172D02*
Y110871D01*
X63881Y112776D02*
X65786Y110871D01*
X63881Y112776D02*
Y114681D01*
Y119126D01*
X31687Y119571D02*
X34417Y122301D01*
X44577D01*
X29972Y119507D02*
X31750D01*
X29972Y110363D02*
Y119507D01*
Y110363D02*
X43688D01*
D29*
X45600Y122301D02*
X45633Y122268D01*
X51000Y107414D02*
X51010Y107404D01*
X51000Y107414D02*
Y108700D01*
Y107395D02*
Y107414D01*
X56800Y112950D02*
X56800Y112950D01*
Y110300D02*
Y112950D01*
X52600Y110300D02*
X56800D01*
X51000Y108700D02*
X52600Y110300D01*
X55100Y111000D02*
Y112950D01*
Y111000D02*
X55100Y111000D01*
X52600D02*
X55100D01*
X50500Y108900D02*
X52600Y111000D01*
X50500Y107395D02*
Y108900D01*
X53400Y112950D02*
X53400Y112950D01*
Y112000D02*
Y112950D01*
X52800Y112000D02*
X53400D01*
X50000Y109200D02*
X52800Y112000D01*
X50000Y107395D02*
Y109200D01*
X51300Y112100D02*
Y112950D01*
Y112100D02*
X51300Y112100D01*
X50700D02*
X51300D01*
X49500Y110900D02*
X50700Y112100D01*
X49500Y107395D02*
Y110900D01*
X49600Y112000D02*
Y112950D01*
X49000Y111400D02*
X49600Y112000D01*
X49000Y107395D02*
Y111400D01*
X47900Y112000D02*
Y113050D01*
Y112000D02*
X48500Y111400D01*
Y107395D02*
Y111400D01*
X53800Y104095D02*
X56935D01*
X52018Y105104D02*
X53810D01*
X55946Y105095D02*
X55955Y105104D01*
X53800Y105095D02*
X55946D01*
X43742Y114500D02*
X48010Y110232D01*
X43872Y113100D02*
X47510Y109462D01*
X53800Y98595D02*
X55671D01*
X48000Y110222D02*
X48010Y110232D01*
X48000Y107395D02*
Y110222D01*
X47500Y109452D02*
X47510Y109462D01*
X47500Y107395D02*
Y109452D01*
X47000Y108682D02*
X47010Y108692D01*
X47000Y107395D02*
Y108682D01*
X45000Y109285D02*
X45010Y109295D01*
X45000Y107395D02*
Y109285D01*
X37915Y105595D02*
X42700D01*
X38227Y104267D02*
X39064Y105104D01*
X39073Y105095D02*
X42700D01*
X40034Y100595D02*
X42700D01*
X40413Y99595D02*
X42700D01*
X41310Y99095D02*
X42700D01*
X41402Y98044D02*
X42680D01*
X46500Y95034D02*
X46510Y95024D01*
X46500Y95034D02*
Y96295D01*
X47000Y94391D02*
Y96295D01*
X48000Y94121D02*
X48010Y94111D01*
X48000Y94121D02*
Y96295D01*
X48500Y93351D02*
X48510Y93341D01*
X48500Y93351D02*
Y96295D01*
X49000Y93494D02*
X49530Y92964D01*
X49000Y93494D02*
Y96295D01*
X49500Y94772D02*
X52070Y92202D01*
X49500Y94772D02*
Y96295D01*
X50000Y95034D02*
Y96295D01*
X51500Y94931D02*
X52197Y94234D01*
X51500Y94931D02*
Y96295D01*
X44510Y96312D02*
Y97596D01*
X53828Y105617D02*
X55240D01*
X53810Y105635D02*
X53828Y105617D01*
X44479Y106308D02*
Y108429D01*
Y106308D02*
X44869Y105918D01*
X51816D01*
X42710Y98104D02*
Y98108D01*
X42707Y99601D02*
X42710Y99604D01*
X56935Y104095D02*
X57614Y104775D01*
X59436D01*
X31750Y108585D02*
X31877Y108712D01*
X48260Y85979D02*
X49530D01*
X48260Y83820D02*
Y85979D01*
X49920Y73787D02*
Y76705D01*
X67945Y86602D02*
X68465D01*
X71628Y87414D02*
Y89662D01*
X71209Y86995D02*
X71628Y87414D01*
X56515Y98298D02*
X61548D01*
X55245Y97028D02*
X56515Y98298D01*
X53086Y97028D02*
X55245D01*
X52197Y97917D02*
X53086Y97028D01*
X51562Y97917D02*
X52197D01*
X51010Y97365D02*
X51562Y97917D01*
X51010Y96304D02*
Y97365D01*
X51352Y99104D02*
X53810D01*
X50419Y98171D02*
X51352Y99104D01*
X45085Y98171D02*
X50419D01*
X44510Y97596D02*
X45085Y98171D01*
X68199Y98933D02*
X68453Y99187D01*
X67818Y98933D02*
X68199D01*
X69342Y105791D02*
X69850Y105283D01*
X73660Y103251D02*
X74549D01*
X52130Y105604D02*
X53810D01*
X42672Y107061D02*
X43561Y106172D01*
X50510Y96304D02*
Y98080D01*
X42710Y98604D02*
X43994D01*
X31750Y103505D02*
Y103759D01*
X42710Y100104D02*
X44958D01*
X44482Y122206D02*
X44577Y122301D01*
X41517Y101104D02*
X42710D01*
X39751Y102870D02*
X41517Y101104D01*
X39751Y102870D02*
Y103124D01*
X72517Y122809D02*
X72771Y122555D01*
X71120Y107303D02*
X71628D01*
X43815Y111887D02*
X47010Y108692D01*
X31623Y108839D02*
Y108966D01*
X57912Y106299D02*
X58166Y106172D01*
X72378Y88392D02*
X72505Y88265D01*
X64580Y90678D02*
X65659D01*
X66040Y91948D02*
X66179Y91809D01*
X63500Y91948D02*
X64580D01*
X62865Y96139D02*
X63373Y96647D01*
X44386Y122110D02*
X44577Y122301D01*
X55626Y96647D02*
X57670D01*
X55283Y96304D02*
X55626Y96647D01*
X52041Y96304D02*
X55283D01*
X77216Y103251D02*
X78486D01*
X56134Y94234D02*
X56515Y93853D01*
Y89249D02*
Y93853D01*
X59951Y82531D02*
Y82963D01*
Y83940D01*
X62738Y75438D02*
X62865Y75565D01*
X56642Y74041D02*
X57785D01*
X61341Y114681D02*
Y114808D01*
X44450Y90551D02*
X48010Y94111D01*
X44450Y90424D02*
Y90551D01*
X51677Y82689D02*
X52070Y83082D01*
X51054Y85979D02*
X52070D01*
X50927Y85852D02*
X51054Y85979D01*
X50927Y79629D02*
Y85852D01*
X48720Y77422D02*
X50927Y79629D01*
X48720Y73787D02*
Y77422D01*
X48279Y78632D02*
Y83947D01*
X48120Y78473D02*
X48279Y78632D01*
X48120Y73787D02*
Y78473D01*
X45612Y78886D02*
X46920Y77578D01*
Y73787D02*
Y77578D01*
X46320Y73787D02*
Y77124D01*
X42926Y80518D02*
X46320Y77124D01*
X42926Y80518D02*
Y85979D01*
X44450D01*
X51720Y73787D02*
Y76919D01*
X51677Y76962D02*
X51720Y76919D01*
X49920Y76705D02*
X50177Y76962D01*
X51120Y73787D02*
X51120Y73787D01*
X50520Y71348D02*
Y73787D01*
X47520Y71348D02*
Y73787D01*
Y71348D02*
X50520D01*
X47510Y73797D02*
Y82689D01*
X53213Y70612D02*
X53340Y70739D01*
X32131Y78820D02*
X32324Y78627D01*
X32131Y76120D02*
X32338Y76327D01*
X66179Y91809D02*
X66675D01*
X66028Y90309D02*
X66675D01*
X31750Y92329D02*
X32131Y92710D01*
X31877Y97409D02*
X32131Y97663D01*
X43688Y110363D02*
X43942D01*
X44450Y92964D02*
X46510Y95024D01*
X37973Y85598D02*
Y85725D01*
X43561Y106172D02*
X43815D01*
X44883Y105104D01*
X45010D01*
X51816Y105918D02*
X52130Y105604D01*
X52197Y94234D02*
X56134D01*
X50000Y95034D02*
X54102Y90932D01*
X45612Y78886D02*
Y85979D01*
X46990D01*
X44450Y83082D02*
X44843Y82689D01*
D30*
X37084Y97663D02*
X40025Y100604D01*
X35941Y95123D02*
X40413Y99595D01*
X42710Y97625D02*
Y98073D01*
X44069Y91440D02*
X47010Y94381D01*
X42710Y97625D02*
X44023Y96312D01*
X30861Y107315D02*
X33846D01*
X30480Y106934D02*
X30861Y107315D01*
X52070Y90424D02*
Y92202D01*
X49530Y90424D02*
Y92964D01*
X46990Y91821D02*
X48510Y93341D01*
X46990Y90424D02*
Y91821D01*
X41402Y96139D02*
Y98044D01*
X37973Y85725D02*
X43688Y91440D01*
X44069D01*
X37973Y90424D02*
X40894D01*
X43434Y92964D01*
X44450D01*
X34925Y92710D02*
X41275Y99060D01*
D31*
X44023Y96312D02*
X44510D01*
X44196Y108712D02*
X44479Y108429D01*
X49320Y73787D02*
X49920D01*
X50520Y73787D02*
X51120D01*
X43942Y110363D02*
X45010Y109295D01*
D32*
X75946Y113284D02*
X78105Y111125D01*
Y104140D02*
Y111125D01*
X77216Y103251D02*
X78105Y104140D01*
X74549Y100711D02*
X75565Y99695D01*
Y84709D02*
Y88138D01*
X72771Y122301D02*
X76454D01*
X75565Y95885D02*
Y99695D01*
X74549Y103251D02*
X77216D01*
D33*
X65786Y103505D02*
D03*
X70231Y85598D02*
D03*
X40005Y102616D02*
D03*
X75565Y84709D02*
D03*
X72771Y122301D02*
D03*
X75946Y113284D02*
D03*
X76454Y122301D02*
D03*
D34*
X65786Y106045D02*
D03*
X58166Y103505D02*
D03*
Y106045D02*
D03*
X31750Y92710D02*
D03*
Y95250D02*
D03*
X74930Y75946D02*
D03*
X31750Y106045D02*
D03*
Y103505D02*
D03*
Y100965D02*
D03*
X71755Y119120D02*
D03*
X31750Y116967D02*
D03*
Y114427D02*
D03*
Y111887D02*
D03*
D35*
X75565Y88265D02*
D03*
Y95885D02*
D03*
D36*
X31750Y97790D02*
D03*
X74930Y73406D02*
D03*
X31750Y108585D02*
D03*
X71755Y112020D02*
D03*
X31750Y119507D02*
D03*
D37*
X66421Y114681D02*
D03*
D38*
X63881D02*
D03*
X61341D02*
D03*
X74549Y103251D02*
D03*
Y100711D02*
D03*
D39*
X56642Y72771D02*
D03*
X62738Y75311D02*
D03*
D40*
X56642Y74041D02*
D03*
Y75311D02*
D03*
X62738Y74041D02*
D03*
Y72771D02*
D03*
D41*
X61548Y98552D02*
D03*
X66548D02*
D03*
X68199Y103933D02*
D03*
Y98933D02*
D03*
X54309Y89154D02*
D03*
X59309D02*
D03*
X37973Y85544D02*
D03*
Y90424D02*
D03*
D42*
X44300Y118675D02*
D03*
X45633D02*
D03*
X46967D02*
D03*
X48300D02*
D03*
X52100Y118575D02*
D03*
X53433D02*
D03*
X54767D02*
D03*
X56100D02*
D03*
D43*
X74549Y105791D02*
D03*
M02*
