%FSLAX43Y43*%
%MOMM*%
G71*
G01*
G75*
G04 Layer_Color=8421504*
%ADD10R,0.900X0.700*%
%ADD11R,2.700X3.300*%
%ADD12R,2.700X1.000*%
%ADD13O,1.800X0.300*%
%ADD14O,0.300X1.800*%
%ADD15R,1.300X2.000*%
%ADD16R,2.000X2.000*%
%ADD17R,0.700X0.900*%
%ADD18R,0.900X2.100*%
%ADD19R,3.200X2.100*%
%ADD20O,1.900X0.600*%
%ADD21O,0.300X4.000*%
%ADD22R,0.300X4.000*%
G04:AMPARAMS|DCode=23|XSize=0.3mm|YSize=4mm|CornerRadius=0.075mm|HoleSize=0mm|Usage=FLASHONLY|Rotation=0.000|XOffset=0mm|YOffset=0mm|HoleType=Round|Shape=RoundedRectangle|*
%AMROUNDEDRECTD23*
21,1,0.300,3.850,0,0,0.0*
21,1,0.150,4.000,0,0,0.0*
1,1,0.150,0.075,-1.925*
1,1,0.150,-0.075,-1.925*
1,1,0.150,-0.075,1.925*
1,1,0.150,0.075,1.925*
%
%ADD23ROUNDEDRECTD23*%
%ADD24R,0.600X1.150*%
%ADD25R,1.100X1.700*%
%ADD26R,1.700X1.100*%
%ADD27C,0.500*%
%ADD28C,1.000*%
%ADD29C,0.254*%
%ADD30C,0.400*%
%ADD31C,0.300*%
%ADD32C,2.000*%
%ADD33R,1.500X1.500*%
%ADD34C,1.500*%
%ADD35C,1.400*%
%ADD36R,1.500X1.500*%
%ADD37R,1.600X1.600*%
%ADD38C,1.600*%
%ADD39O,2.000X1.000*%
%ADD40O,2.000X1.000*%
%ADD41C,1.524*%
%ADD42O,1.000X1.524*%
%ADD43R,1.600X1.600*%
D10*
X56800Y112950D02*
D03*
Y114450D02*
D03*
X47900Y113050D02*
D03*
Y114550D02*
D03*
X49600Y112950D02*
D03*
Y114450D02*
D03*
X51300Y112950D02*
D03*
Y114450D02*
D03*
X53400Y112950D02*
D03*
Y114450D02*
D03*
X55100Y112950D02*
D03*
Y114450D02*
D03*
X59055Y79617D02*
D03*
Y78117D02*
D03*
X67945Y85102D02*
D03*
Y86602D02*
D03*
Y83427D02*
D03*
Y81927D02*
D03*
X62865Y78117D02*
D03*
Y79617D02*
D03*
X71120Y105803D02*
D03*
Y107303D02*
D03*
X69469Y105803D02*
D03*
Y107303D02*
D03*
X66675Y90309D02*
D03*
Y91809D02*
D03*
X44450Y90424D02*
D03*
Y88924D02*
D03*
X46990Y90424D02*
D03*
Y88924D02*
D03*
X44450Y84479D02*
D03*
Y85979D02*
D03*
X46990Y84479D02*
D03*
Y85979D02*
D03*
X49530Y84479D02*
D03*
Y85979D02*
D03*
X52070Y84479D02*
D03*
Y85979D02*
D03*
X49530Y88924D02*
D03*
Y90424D02*
D03*
X52070Y88924D02*
D03*
Y90424D02*
D03*
D11*
X41177Y76327D02*
D03*
D12*
X35277Y74027D02*
D03*
Y76327D02*
D03*
Y78627D02*
D03*
D13*
X42700Y98095D02*
D03*
Y98595D02*
D03*
Y99095D02*
D03*
Y99595D02*
D03*
Y100095D02*
D03*
Y100595D02*
D03*
Y101095D02*
D03*
Y101595D02*
D03*
Y102095D02*
D03*
Y102595D02*
D03*
Y103095D02*
D03*
Y103595D02*
D03*
Y104095D02*
D03*
Y104595D02*
D03*
Y105095D02*
D03*
Y105595D02*
D03*
X53800D02*
D03*
Y105095D02*
D03*
Y104595D02*
D03*
Y104095D02*
D03*
Y103595D02*
D03*
Y103095D02*
D03*
Y102595D02*
D03*
Y102095D02*
D03*
Y101595D02*
D03*
Y101095D02*
D03*
Y100595D02*
D03*
Y100095D02*
D03*
Y99595D02*
D03*
Y99095D02*
D03*
Y98595D02*
D03*
Y98095D02*
D03*
D14*
X44500Y107395D02*
D03*
X45000D02*
D03*
X45500D02*
D03*
X46000D02*
D03*
X46500D02*
D03*
X47000D02*
D03*
X47500D02*
D03*
X48000D02*
D03*
X48500D02*
D03*
X49000D02*
D03*
X49500D02*
D03*
X50000D02*
D03*
X50500D02*
D03*
X51000D02*
D03*
X51500D02*
D03*
X52000D02*
D03*
Y96295D02*
D03*
X51500D02*
D03*
X51000D02*
D03*
X50500D02*
D03*
X50000D02*
D03*
X49500D02*
D03*
X49000D02*
D03*
X48500D02*
D03*
X48000D02*
D03*
X47500D02*
D03*
X47000D02*
D03*
X46500D02*
D03*
X46000D02*
D03*
X45500D02*
D03*
X45000D02*
D03*
X44500D02*
D03*
D15*
X57651Y82963D02*
D03*
X59951D02*
D03*
D16*
X58801Y86963D02*
D03*
D17*
X72378Y96647D02*
D03*
X70878D02*
D03*
X57670D02*
D03*
X59170D02*
D03*
X67195D02*
D03*
X68695D02*
D03*
X70878Y88392D02*
D03*
X72378D02*
D03*
X63385Y96647D02*
D03*
X64885D02*
D03*
X55765Y91059D02*
D03*
X57265D02*
D03*
X50177Y82689D02*
D03*
X51677D02*
D03*
X47510D02*
D03*
X49010D02*
D03*
X46343Y82689D02*
D03*
X44843D02*
D03*
X50177Y76962D02*
D03*
X51677D02*
D03*
X42176Y82677D02*
D03*
X43676D02*
D03*
D18*
X70753Y78923D02*
D03*
X68453D02*
D03*
X66153D02*
D03*
D19*
X68453Y73223D02*
D03*
D20*
X59880Y94488D02*
D03*
Y93218D02*
D03*
Y91948D02*
D03*
Y90678D02*
D03*
X64580Y94488D02*
D03*
Y93218D02*
D03*
Y91948D02*
D03*
Y90678D02*
D03*
D21*
X45720Y73787D02*
D03*
X46320D02*
D03*
X46920D02*
D03*
X48120D02*
D03*
X48720D02*
D03*
X49320D02*
D03*
X49920D02*
D03*
X51720D02*
D03*
X52320D02*
D03*
D22*
X47520D02*
D03*
X50520D02*
D03*
D23*
X51120D02*
D03*
D24*
X65024Y85834D02*
D03*
X65974Y83584D02*
D03*
X64074D02*
D03*
D25*
X68660Y119126D02*
D03*
X65960D02*
D03*
X61675D02*
D03*
X58975D02*
D03*
D26*
X32131Y76120D02*
D03*
Y78820D02*
D03*
M02*
