%FSLAX43Y43*%
%MOMM*%
G71*
G01*
G75*
G04 Layer_Physical_Order=3*
G04 Layer_Color=16711680*
%ADD10R,0.700X0.900*%
%ADD11R,1.700X1.100*%
%ADD12R,0.900X0.700*%
%ADD13R,1.100X1.700*%
%ADD14R,0.600X1.150*%
%ADD15O,0.300X4.000*%
G04:AMPARAMS|DCode=16|XSize=0.3mm|YSize=4mm|CornerRadius=0.075mm|HoleSize=0mm|Usage=FLASHONLY|Rotation=0.000|XOffset=0mm|YOffset=0mm|HoleType=Round|Shape=RoundedRectangle|*
%AMROUNDEDRECTD16*
21,1,0.300,3.850,0,0,0.0*
21,1,0.150,4.000,0,0,0.0*
1,1,0.150,0.075,-1.925*
1,1,0.150,-0.075,-1.925*
1,1,0.150,-0.075,1.925*
1,1,0.150,0.075,1.925*
%
%ADD16ROUNDEDRECTD16*%
%ADD17R,0.300X4.000*%
%ADD18O,1.900X0.600*%
%ADD19R,3.200X2.100*%
%ADD20R,0.900X2.100*%
%ADD21R,1.300X2.000*%
%ADD22R,2.000X2.000*%
%ADD23R,2.700X1.000*%
%ADD24R,2.700X3.300*%
%ADD25O,0.300X1.800*%
%ADD26O,1.800X0.300*%
%ADD27C,0.400*%
%ADD28C,0.500*%
%ADD29C,0.254*%
%ADD30C,0.300*%
%ADD31C,1.000*%
%ADD32C,0.700*%
%ADD33C,2.000*%
%ADD34C,1.524*%
%ADD35C,1.600*%
%ADD36R,1.600X1.600*%
%ADD37R,1.500X1.500*%
%ADD38O,1.000X1.524*%
%ADD39C,1.500*%
%ADD40R,1.500X1.500*%
%ADD41O,2.000X1.000*%
%ADD42O,2.000X1.000*%
%ADD43R,1.600X1.600*%
%ADD44C,1.400*%
D34*
X37973Y90424D02*
D03*
Y85544D02*
D03*
X59309Y89154D02*
D03*
X54309D02*
D03*
X68199Y98933D02*
D03*
Y103933D02*
D03*
X66548Y98552D02*
D03*
X61548D02*
D03*
D35*
X74549Y100711D02*
D03*
Y103251D02*
D03*
X61341Y114681D02*
D03*
X63881D02*
D03*
D36*
X74549Y105791D02*
D03*
D37*
X76454Y122301D02*
D03*
X75946Y113284D02*
D03*
X72771Y122301D02*
D03*
X75565Y84709D02*
D03*
X40005Y102616D02*
D03*
X70231Y85598D02*
D03*
X65786Y103505D02*
D03*
D38*
X56100Y118575D02*
D03*
X54767D02*
D03*
X53433D02*
D03*
X52100D02*
D03*
X48300Y118675D02*
D03*
X46967D02*
D03*
X45633D02*
D03*
X44300D02*
D03*
D39*
X31750Y111887D02*
D03*
Y114427D02*
D03*
Y116967D02*
D03*
X71755Y119120D02*
D03*
X31750Y100965D02*
D03*
Y103505D02*
D03*
Y106045D02*
D03*
X74930Y75946D02*
D03*
X31750Y95250D02*
D03*
Y92710D02*
D03*
X58166Y106045D02*
D03*
Y103505D02*
D03*
X65786Y106045D02*
D03*
D40*
X31750Y119507D02*
D03*
X71755Y112020D02*
D03*
X31750Y108585D02*
D03*
X74930Y73406D02*
D03*
X31750Y97790D02*
D03*
D41*
X62738Y72771D02*
D03*
Y74041D02*
D03*
X56642Y75311D02*
D03*
Y74041D02*
D03*
D42*
X62738Y75311D02*
D03*
X56642Y72771D02*
D03*
D43*
X66421Y114681D02*
D03*
D44*
X75565Y95885D02*
D03*
Y88265D02*
D03*
M02*
