%FSLAX43Y43*%
%MOMM*%
G71*
G01*
G75*
G04 Layer_Color=8388736*
%ADD10R,0.900X0.700*%
%ADD11R,2.700X3.300*%
%ADD12R,2.700X1.000*%
%ADD13O,1.800X0.300*%
%ADD14O,0.300X1.800*%
%ADD15R,1.300X2.000*%
%ADD16R,2.000X2.000*%
%ADD17R,0.700X0.900*%
%ADD18R,0.900X2.100*%
%ADD19R,3.200X2.100*%
%ADD20O,1.900X0.600*%
%ADD21O,0.300X4.000*%
%ADD22R,0.300X4.000*%
G04:AMPARAMS|DCode=23|XSize=0.3mm|YSize=4mm|CornerRadius=0.075mm|HoleSize=0mm|Usage=FLASHONLY|Rotation=0.000|XOffset=0mm|YOffset=0mm|HoleType=Round|Shape=RoundedRectangle|*
%AMROUNDEDRECTD23*
21,1,0.300,3.850,0,0,0.0*
21,1,0.150,4.000,0,0,0.0*
1,1,0.150,0.075,-1.925*
1,1,0.150,-0.075,-1.925*
1,1,0.150,-0.075,1.925*
1,1,0.150,0.075,1.925*
%
%ADD23ROUNDEDRECTD23*%
%ADD24R,0.600X1.150*%
%ADD25R,1.100X1.700*%
%ADD26R,1.700X1.100*%
%ADD27C,0.500*%
%ADD28C,1.000*%
%ADD29C,0.254*%
%ADD30C,0.400*%
%ADD31C,0.300*%
%ADD32C,2.000*%
%ADD33R,1.500X1.500*%
%ADD34C,1.500*%
%ADD35C,1.400*%
%ADD36R,1.500X1.500*%
%ADD37R,1.600X1.600*%
%ADD38C,1.600*%
%ADD39O,2.000X1.000*%
%ADD40O,2.000X1.000*%
%ADD41C,1.524*%
%ADD42O,1.000X1.524*%
%ADD43R,1.600X1.600*%
%ADD44R,1.103X0.903*%
%ADD45R,2.903X3.503*%
%ADD46R,2.903X1.203*%
%ADD47O,2.003X0.503*%
%ADD48O,0.503X2.003*%
%ADD49R,1.503X2.203*%
%ADD50R,2.203X2.203*%
%ADD51R,0.903X1.103*%
%ADD52R,1.103X2.303*%
%ADD53R,3.403X2.303*%
%ADD54O,2.103X0.803*%
%ADD55O,0.503X4.203*%
%ADD56R,0.503X4.203*%
G04:AMPARAMS|DCode=57|XSize=0.503mm|YSize=4.203mm|CornerRadius=0.177mm|HoleSize=0mm|Usage=FLASHONLY|Rotation=0.000|XOffset=0mm|YOffset=0mm|HoleType=Round|Shape=RoundedRectangle|*
%AMROUNDEDRECTD57*
21,1,0.503,3.850,0,0,0.0*
21,1,0.150,4.203,0,0,0.0*
1,1,0.353,0.075,-1.925*
1,1,0.353,-0.075,-1.925*
1,1,0.353,-0.075,1.925*
1,1,0.353,0.075,1.925*
%
%ADD57ROUNDEDRECTD57*%
%ADD58R,0.803X1.353*%
%ADD59R,1.303X1.903*%
%ADD60R,1.903X1.303*%
%ADD61R,1.703X1.703*%
%ADD62C,1.703*%
%ADD63C,1.603*%
%ADD64R,1.703X1.703*%
%ADD65R,1.803X1.803*%
%ADD66C,1.803*%
%ADD67O,2.203X1.203*%
%ADD68O,2.203X1.203*%
%ADD69C,1.727*%
%ADD70O,1.203X1.727*%
%ADD71R,1.803X1.803*%
D44*
X56800Y112950D02*
D03*
Y114450D02*
D03*
X47900Y113050D02*
D03*
Y114550D02*
D03*
X49600Y112950D02*
D03*
Y114450D02*
D03*
X51300Y112950D02*
D03*
Y114450D02*
D03*
X53400Y112950D02*
D03*
Y114450D02*
D03*
X55100Y112950D02*
D03*
Y114450D02*
D03*
X59055Y79617D02*
D03*
Y78117D02*
D03*
X67945Y85102D02*
D03*
Y86602D02*
D03*
Y83427D02*
D03*
Y81927D02*
D03*
X62865Y78117D02*
D03*
Y79617D02*
D03*
X71120Y105803D02*
D03*
Y107303D02*
D03*
X69469Y105803D02*
D03*
Y107303D02*
D03*
X66675Y90309D02*
D03*
Y91809D02*
D03*
X44450Y90424D02*
D03*
Y88924D02*
D03*
X46990Y90424D02*
D03*
Y88924D02*
D03*
X44450Y84479D02*
D03*
Y85979D02*
D03*
X46990Y84479D02*
D03*
Y85979D02*
D03*
X49530Y84479D02*
D03*
Y85979D02*
D03*
X52070Y84479D02*
D03*
Y85979D02*
D03*
X49530Y88924D02*
D03*
Y90424D02*
D03*
X52070Y88924D02*
D03*
Y90424D02*
D03*
D45*
X41177Y76327D02*
D03*
D46*
X35277Y74027D02*
D03*
Y76327D02*
D03*
Y78627D02*
D03*
D47*
X42700Y98095D02*
D03*
Y98595D02*
D03*
Y99095D02*
D03*
Y99595D02*
D03*
Y100095D02*
D03*
Y100595D02*
D03*
Y101095D02*
D03*
Y101595D02*
D03*
Y102095D02*
D03*
Y102595D02*
D03*
Y103095D02*
D03*
Y103595D02*
D03*
Y104095D02*
D03*
Y104595D02*
D03*
Y105095D02*
D03*
Y105595D02*
D03*
X53800D02*
D03*
Y105095D02*
D03*
Y104595D02*
D03*
Y104095D02*
D03*
Y103595D02*
D03*
Y103095D02*
D03*
Y102595D02*
D03*
Y102095D02*
D03*
Y101595D02*
D03*
Y101095D02*
D03*
Y100595D02*
D03*
Y100095D02*
D03*
Y99595D02*
D03*
Y99095D02*
D03*
Y98595D02*
D03*
Y98095D02*
D03*
D48*
X44500Y107395D02*
D03*
X45000D02*
D03*
X45500D02*
D03*
X46000D02*
D03*
X46500D02*
D03*
X47000D02*
D03*
X47500D02*
D03*
X48000D02*
D03*
X48500D02*
D03*
X49000D02*
D03*
X49500D02*
D03*
X50000D02*
D03*
X50500D02*
D03*
X51000D02*
D03*
X51500D02*
D03*
X52000D02*
D03*
Y96295D02*
D03*
X51500D02*
D03*
X51000D02*
D03*
X50500D02*
D03*
X50000D02*
D03*
X49500D02*
D03*
X49000D02*
D03*
X48500D02*
D03*
X48000D02*
D03*
X47500D02*
D03*
X47000D02*
D03*
X46500D02*
D03*
X46000D02*
D03*
X45500D02*
D03*
X45000D02*
D03*
X44500D02*
D03*
D49*
X57651Y82963D02*
D03*
X59951D02*
D03*
D50*
X58801Y86963D02*
D03*
D51*
X72378Y96647D02*
D03*
X70878D02*
D03*
X57670D02*
D03*
X59170D02*
D03*
X67195D02*
D03*
X68695D02*
D03*
X70878Y88392D02*
D03*
X72378D02*
D03*
X63385Y96647D02*
D03*
X64885D02*
D03*
X55765Y91059D02*
D03*
X57265D02*
D03*
X50177Y82689D02*
D03*
X51677D02*
D03*
X47510D02*
D03*
X49010D02*
D03*
X46343Y82689D02*
D03*
X44843D02*
D03*
X50177Y76962D02*
D03*
X51677D02*
D03*
X42176Y82677D02*
D03*
X43676D02*
D03*
D52*
X70753Y78923D02*
D03*
X68453D02*
D03*
X66153D02*
D03*
D53*
X68453Y73223D02*
D03*
D54*
X59880Y94488D02*
D03*
Y93218D02*
D03*
Y91948D02*
D03*
Y90678D02*
D03*
X64580Y94488D02*
D03*
Y93218D02*
D03*
Y91948D02*
D03*
Y90678D02*
D03*
D55*
X45720Y73787D02*
D03*
X46320D02*
D03*
X46920D02*
D03*
X48120D02*
D03*
X48720D02*
D03*
X49320D02*
D03*
X49920D02*
D03*
X51720D02*
D03*
X52320D02*
D03*
D56*
X47520D02*
D03*
X50520D02*
D03*
D57*
X51120D02*
D03*
D58*
X65024Y85834D02*
D03*
X65974Y83584D02*
D03*
X64074D02*
D03*
D59*
X68660Y119126D02*
D03*
X65960D02*
D03*
X61675D02*
D03*
X58975D02*
D03*
D60*
X32131Y76120D02*
D03*
Y78820D02*
D03*
D61*
X65786Y103505D02*
D03*
X70231Y85598D02*
D03*
X40005Y102616D02*
D03*
X75565Y84709D02*
D03*
X72771Y122301D02*
D03*
X75946Y113284D02*
D03*
X76454Y122301D02*
D03*
D62*
X65786Y106045D02*
D03*
X58166Y103505D02*
D03*
Y106045D02*
D03*
X31750Y92710D02*
D03*
Y95250D02*
D03*
X74930Y75946D02*
D03*
X31750Y106045D02*
D03*
Y103505D02*
D03*
Y100965D02*
D03*
X71755Y119120D02*
D03*
X31750Y116967D02*
D03*
Y114427D02*
D03*
Y111887D02*
D03*
D63*
X75565Y88265D02*
D03*
Y95885D02*
D03*
D64*
X31750Y97790D02*
D03*
X74930Y73406D02*
D03*
X31750Y108585D02*
D03*
X71755Y112020D02*
D03*
X31750Y119507D02*
D03*
D65*
X66421Y114681D02*
D03*
D66*
X63881D02*
D03*
X61341D02*
D03*
X74549Y103251D02*
D03*
Y100711D02*
D03*
D67*
X56642Y72771D02*
D03*
X62738Y75311D02*
D03*
D68*
X56642Y74041D02*
D03*
Y75311D02*
D03*
X62738Y74041D02*
D03*
Y72771D02*
D03*
D69*
X61548Y98552D02*
D03*
X66548D02*
D03*
X68199Y103933D02*
D03*
Y98933D02*
D03*
X54309Y89154D02*
D03*
X59309D02*
D03*
X37973Y85544D02*
D03*
Y90424D02*
D03*
D70*
X44300Y118675D02*
D03*
X45633D02*
D03*
X46967D02*
D03*
X48300D02*
D03*
X52100Y118575D02*
D03*
X53433D02*
D03*
X54767D02*
D03*
X56100D02*
D03*
D71*
X74549Y105791D02*
D03*
M02*
